<?xml version="1.0" encoding="UTF-8"?>
<svg viewBox="0 0 265.05 222.42" xmlns="http://www.w3.org/2000/svg">
 <defs>
  <filter id="j" color-interpolation-filters="sRGB">
   <feGaussianBlur stdDeviation="0.765214"/>
  </filter>
  <linearGradient id="q" x1=".055606" x2=".99412" y1=".825" y2=".097841">
   <stop stop-color="#c9cbc8" offset="0"/>
   <stop stop-color="#efefef" offset="1"/>
  </linearGradient>
  <linearGradient id="p" x1=".63326" x2=".5095" y1=".99555" y2=".004193">
   <stop stop-color="#ee534e" offset="0"/>
   <stop stop-color="#d32a25" offset="1"/>
  </linearGradient>
  <linearGradient id="k" x1=".011423" x2="1.0076" y1=".9658" y2=".9658">
   <stop stop-color="#81827d" offset="0"/>
   <stop stop-color="#82837e" offset=".27155"/>
   <stop stop-color="#43443f" offset=".6197"/>
   <stop stop-color="#a8a9a4" offset="1"/>
  </linearGradient>
  <radialGradient id="n" cx="571.13" cy="513.9" r="109.76" gradientTransform="matrix(1.8083 .47113 -.3688 1.4155 -746.85 -827.32)" gradientUnits="userSpaceOnUse">
   <stop stop-color="#eb4946" offset="0"/>
   <stop stop-color="#d62925" offset=".60408"/>
   <stop stop-color="#f46a64" offset="1"/>
  </radialGradient>
  <radialGradient id="l" cx="315" cy="422.36" r="85" fx="289.42" fy="503.27" gradientTransform="matrix(2.0064 0 0 1.1603 -276.22 -406.35)" gradientUnits="userSpaceOnUse">
   <stop stop-color="#a0443f" offset="0"/>
   <stop stop-color="#908d88" offset="1"/>
  </radialGradient>
  <radialGradient id="m" cx="604.7" cy="427.39" r="110.02" fx="586.93" fy="673.62" gradientTransform="matrix(1.0261 0 0 .7707 -484.5 -233.54)" gradientUnits="userSpaceOnUse">
   <stop stop-color="#b5110f" offset="0"/>
   <stop stop-color="#eb2a25" offset=".68179"/>
   <stop stop-color="#fd4a46" offset="1"/>
  </radialGradient>
  <radialGradient id="o" cx="604.69" cy="455.5" r="111.6" fx="603.98" fy="549.94" gradientTransform="matrix(1.3931 0 0 .56323 -706.44 -132.59)" gradientUnits="userSpaceOnUse">
   <stop stop-color="#fe7d7a" offset="0"/>
   <stop stop-color="#fe7d7a" stop-opacity="0" offset="1"/>
  </radialGradient>
  <radialGradient id="a" cx="570.88" cy="543.22" r="132.52" gradientTransform="matrix(1.3292 .35615 -.38062 1.4205 -436.79 -778.02)" gradientUnits="userSpaceOnUse">
   <stop stop-color="#dbdbd9" offset="0"/>
   <stop stop-color="#aaaba6" offset=".42044"/>
   <stop stop-color="#d1d1cf" offset=".62811"/>
   <stop stop-color="#54554f" offset=".83416"/>
   <stop stop-color="#fff" offset="1"/>
  </radialGradient>
 </defs>
 <g fill-rule="evenodd">
  <path d="m266.99 129.43c-1.9611 55.031-62.861 97.507-136.02 94.874-73.162-2.6332-130.88-49.379-128.92-104.41 0.044189-1.2391 0.11816-14.615 0.22156-15.841 4.4882-53.223 64.286-81.607 135.8-79.033 70.915 2.5523 127.32 30.478 128.93 83.292 0.051147 1.6736 0.047119 19.427-0.013062 21.118z" fill="url(#k)"/>
  <path d="m266.99 107.43c-1.9611 55.031-62.861 97.507-136.02 94.874-73.162-2.6332-130.88-49.379-128.92-104.41 1.9611-55.031 62.861-97.507 136.02-94.874 73.162 2.6332 130.88 49.379 128.92 104.41z" fill="url(#a)"/>
  <path d="m266.99 107.43c-1.9611 55.031-62.861 97.507-136.02 94.874-73.162-2.6332-130.88-49.379-128.92-104.41 1.9611-55.031 62.861-97.507 136.02-94.874 73.162 2.6332 130.88 49.379 128.92 104.41z" fill="url(#a)"/>
  <path d="m218.03 26.549c27.314 19.275 42.835 49.83 43.969 79.875 1.0919 28.936-20.222 52.558-46.385 69.712-22.69 14.878-47.665 25.386-81.646 24.163-30.299-1.0904-66.953-11.729-88.812-25.406 22.694 15.974 52.661 26.213 85.812 27.406 73.162 2.6332 134.07-39.844 136.03-94.875 1.1469-32.184-18.139-61.525-48.969-80.875z" fill="#fbfbfb" opacity=".587"/>
  <path d="m251.74 94.593c0 49.03-52.266 88.776-116.74 88.776-64.473 0-116.74-39.746-116.74-88.776 0-49.029 52.266-88.776 116.74-88.776 64.473 0 116.74 39.746 116.74 88.776z" fill="url(#l)"/>
  <path d="m245.64 99.615c-1.6616 45.578-52.474 82.957-114.46 80.776-61.99-2.1808-106.86-39.382-105.19-84.96 0.022095-0.60513 0.2308-12.816 0.26895-13.418 2.8367-44.735 49.775-68.827 110.94-66.675 60.214 2.1184 107.65 27.527 108.78 71.275 0.033325 1.2903-0.28595 11.696-0.33356 13.002z" fill="#330706"/>
  <path d="m245.64 97.615c-1.6616 45.578-52.474 82.957-114.46 80.776-61.99-2.1808-106.86-39.382-105.19-84.96 0.022095-0.60513 0.2308-12.816 0.26895-13.418 2.8367-44.735 49.775-68.827 110.94-66.675 60.214 2.1184 107.65 27.527 108.78 71.275 0.033325 1.2903-0.28595 11.696-0.33356 13.002z" fill="url(#m)"/>
  <path d="m245.67 88.571c-1.6243 45.578-52.063 80.758-112.66 78.578-60.595-2.1808-108.4-40.897-106.78-86.475 1.6243-45.578 52.063-80.758 112.66-78.578 60.595 2.1809 108.4 40.897 106.78 86.475z" fill="url(#n)"/>
  <g stroke-width="3">
   <path d="m87.561 104.89l-1.562 3.656 1.25-0.406 13.375-4.282 1.281-0.437 0.219-0.094-4.125-2.125 0.125 0.281-10.563 3.407z" fill="#d63d38"/>
   <path d="m81.218 91.674l-2.188 3.687 0.563-0.187 5.844 12.187 0.562 1.188 1.562-3.656v-0.031982l-5.843-12.187-0.5-1z" fill="#d32a27"/>
   <path d="m62.999 97.736l4.062 1.657 11.969-4.032 2.188-3.687-0.094-0.188-1.25 0.407-15.344 5.187-1.593 0.531 0.062 0.125z" fill="#cf3732"/>
   <path d="m69.53 111.74l3.719 1.781 0.375-0.156-0.656-1.406-5.907-12.531v-0.031006l-4.062-1.657 0.656 1.407 5.875 12.593z" fill="#c32b28"/>
   <path d="m58.874 116.67v0.031006l-1.437 3.875 1.218-0.531 13.563-6.063 1.031-0.469-3.719-1.781 0.063 0.125-10.719 4.813z" fill="#c62b26"/>
   <path d="m44.968 85.33c-1.782-0.61099-3.163-1.137-4.094-1.563l0.625 1.407 15.156 34.125 0.625 1.344 0.157-0.063 1.437-3.875v-0.031006l-0.094 0.031-13.937-31.312 0.125-0.063z" fill="#d12c28"/>
   <path d="m55.718 81.111l1.531-3.625-0.094-0.187-1.281 0.531-13.562 5.344-1.469 0.562 0.031 0.031c0.931 0.426 2.312 0.952 4.094 1.563l10.75-4.219z" fill="#cf2d2a"/>
   <path d="m61.53 92.455l1.407-3.75-0.032 0.031-5.125-10.187-0.531-1.063-1.531 3.625 5.094 10.188 0.593 1.218 0.125-0.062z" fill="#c22e2a"/>
   <path d="m78.874 85.892l-3.875-2.0625 0.125 0.25-12.188 4.625-1.4062 3.75 1.1562-0.4062 15-5.7188 1.1875-0.4375z" fill="#df3a36"/>
   <path d="m74.28 75.111l-4.0938-1.75 0.5938 1.2812 4.2188 9.1875 3.875 2.0625 0.3125-0.125-0.6875-1.4688-4.2188-9.1875z" fill="#dc3733"/>
   <path d="m86.187 67.611l-0.032-0.093-1.281 0.468-13.219 4.625-1.562 0.563 0.094 0.187 4.093 1.75-0.093-0.218 10.375-3.625 1.625-3.657z" fill="#dd3834"/>
   <path d="m86.187 67.611l-1.626 3.656v0.031982l13.438 29.906 4.125 2.125-0.219 0.094 0.313-0.094-0.657-1.531-14.843-33.032-0.531-1.156z" fill="#bd2822"/>
   <path d="m108.84 67.861l4.6562 1.625 21.031-5.9688 1.875-0.5312-0.375-0.6562 0.125 0.5312-4.3438-1.7188-21.344 6.0938-1.6875 0.4688 0.0625 0.1562z" fill="#e55650"/>
   <path d="m112.53 75.549l1.5312-3.7812-1.0312-2.1562 0.4688-0.125-4.6562-1.625 0.6875 1.4688 2.5 5.1875 0.5 1.0312z" fill="#bf2621"/>
   <path d="m133.25 69.455l1.25-3.5938-1 0.3125-19.312 5.875-0.125-0.2812-1.5312 3.7812 0.0625 0.125 1.25-0.375 19.375-5.9062 0.0312 0.0625z" fill="#ef4c47"/>
   <path d="m135.34 73.236l4.3438 1.8125-0.3125-0.7188-0.375-0.6562-3.75-6.7812-0.5938-1.0938-0.1562 0.0625-1.25 3.5938 2.0938 3.7812z" fill="#bf2621"/>
   <path d="m114.28 79.299l4.6562 1.8438 19.156-5.3125 1.8125-0.5-0.5312-1 0.3125 0.7188-4.3438-1.8125 0.125 0.2188-19.438 5.375-1.75 0.4688z" fill="#e85752"/>
   <path d="m119.56 88.58l1.282-3.5-0.094 0.031-2.094-3.875 0.282-0.093-4.657-1.844-0.062 0.031 0.875 1.656 3.594 6.625 0.562 1.063 0.313-0.094h-9.77e-4z" fill="#bf2722"/>
   <path d="m141.28 82.267l1.344-3.5-0.906 0.25-20.875 6.063-1.282 3.5 0.844-0.25 20.875-6.031v-0.031983z" fill="#ee4947"/>
   <path d="m144.03 86.799l3.875 2.281 0.75-0.219-0.937-1.656-4.281-7.5-0.594-1-0.219 0.062-1.344 3.5 0.157-0.031 2.593 4.563z" fill="#c52724"/>
   <path d="m110.78 97.174l-0.9375 3.4062 0.4062-0.125 36.625-11.062 1.0312-0.3125-3.875-2.2812 0.1562 0.2812-33.406 10.094z" fill="#e5504a"/>
   <path d="m96.311 67.674l-4.0625-2.125-0.25 0.0625 0.75 1.5625 15.719 32.5 0.5625 1.1562 0.8125-0.25 0.9375-3.4062-0.1875 0.0625-14.281-29.562z" fill="#e6433e"/>
   <path d="m130.72 53.736l-0.969 0.281-36.094 11.094-1.406 0.438 4.062 2.125-0.093-0.219 33.25-10.219 1.25-3.5z" fill="#e5403c"/>
   <path d="m130.72 53.736l-1.25 3.5 2.3438 3.9062 4.3438 1.7188-0.125-0.5312-0.625-1.0312-3.9375-6.5938-0.5938-1.0312-0.1562 0.0625z" fill="#c02825"/>
   <path d="m183.5 72.205l1.688-3.438-1.063 0.219-19 4.344-1.937 3.344 0.093 0.156 1.156-0.25 19.032-4.375h0.031006z" fill="#e23531"/>
   <path d="m186.37 77.58l4.219 2.469 0.344-0.063-0.876-1.719-4.25-8.468-0.531-1.063-0.093 0.031-1.688 3.438 0.156-0.031 2.719 5.406z" fill="#cd2a25"/>
   <path d="m154.97 84.518l-0.2188 0.0625-0.7188 3.5312 0.5625-0.125 34.469-7.5938 1.5312-0.3438-4.2188-2.4688 0.1562 0.2812-31.406 6.9688-0.1562-0.3125z" fill="#ed5955"/>
   <path d="m140.69 55.174l-4.2188-1.9062 0.75 1.5938 15.719 32.312 0.5312 1.0625 0.5625-0.125 0.7188-3.5312 0.2188-0.0625-14.281-29.344z" fill="#f45653"/>
   <path d="m153 49.174l-0.25-0.5-1.188 0.343-13.406 3.75-1.718 0.469 0.031 0.031 4.218 1.907 10.094-2.813 2.219-3.187z" fill="#de322e"/>
   <path d="m153 49.174l-2.2188 3.1875 0.4062-0.125 11.562 23.531 0.4375 0.9062 1.9375-3.3438-0.2188 0.0625-11.594-23.594-0.3125-0.625z" fill="#c62723"/>
   <path d="m198.5 58.455l1.2188-3.2188-2.1875-4.3438-4.2812-2.7188-0.3125 0.0625 0.0937 0.3438 0.75 1.5312 3.75 7.5 0.4375 0.875 0.5313-0.0312z" fill="#cc2924"/>
   <path d="m199.81 47.58c-1.5331 0.009003-3.1691 0.14969-4.875 0.375l-1.6875 0.2188 4.2812 2.7188-0.0625-0.125c0.79456-0.061096 1.6554-0.15274 2.375-0.15625 1.3731-0.006989 2.5897 0.065094 3.5625 0.28125 0.97284 0.21619 1.6791 0.56396 2.0938 0.90625 0.41461 0.34228 0.5694 0.65015 0.625 1.1875 0.029297 0.28339-0.011505 0.3992-0.5625 0.78125-0.55096 0.38205-1.5398 0.76663-2.5625 1.0312-1.5753 0.40759-2.5734 0.44348-3.25 0.5l-0.0312-0.0625-1.2188 3.2188h0.46875s2.3892-0.12299 4.8125-0.75c1.2117-0.31351 2.4455-0.73752 3.5-1.4688 1.0545-0.73123 2.0019-2.0334 1.8438-3.5625-0.1319-1.2752-0.78961-2.4204-1.7188-3.1875-0.92914-0.76706-2.0978-1.2162-3.375-1.5-1.2772-0.28381-2.6856-0.41516-4.2188-0.40625z" fill="#f45b56"/>
   <path d="m205.9 74.143l4.344 2.437h0.25l-0.906-1.813-5.032-9.968-4.812-2.813 1.031 2 5.125 10.157z" fill="#cc2721"/>
   <path d="m195.47 76.111l0.031 0.094-1.656 3.25 0.906-0.156 13.75-2.375 1.906-0.344h-0.15601l-4.344-2.438 0.094 0.157-10.531 1.812z" fill="#ed524d"/>
   <path d="m177 44.174l0.781 1.656 15.375 32.625 0.469 1.031 0.219-0.031 1.656-3.25-0.031-0.094-0.125 0.032-13.938-29.563-4.406-2.406z" fill="#fe7773"/>
   <path d="m177 44.174l4.406 2.406-0.062-0.156c1.128-0.087006 5.099-0.33798 17.5-2.125 1.686-0.24298 3.258-0.38998 4.718-0.43799 4.382-0.142 7.758 0.56699 10.188 1.906 3.239 1.786 4.981 4.634 5.5 8.844 0.216 1.753-0.435 2.827-1.844 3.875-1.408 1.048-3.59 1.83-5.875 2.344-4.57 1.027-9.375 1-9.375 1l-2.5-0.031 0.094 0.187 4.812 2.813-0.031-0.063c1.932-0.080994 4.572-0.27499 7.657-0.96802 2.511-0.565 5.053-1.404 7.031-2.875 1.978-1.472 3.377-3.816 3.031-6.625-0.60599-4.915-2.989-8.88-7.062-11.125-3.055-1.685-6.951-2.443-11.719-2.282-1.59 0.053986-3.28 0.21201-5.063 0.46899-13.844 1.996-19.375 2.375-19.375 2.375l-2.187 0.125 0.156 0.344z" fill="url(#p)"/>
  </g>
  <path d="m195.12 49.442l3.75 7.5s9.125-0.5 8.75-4.125-5.875-4.25-12.5-3.375zm-16-4.25l15.375 32.625 13.75-2.375-6.125-12.125s19.75 0.25 18.625-8.875-8.25-13.625-22.125-11.625-19.5 2.375-19.5 2.375zm-40.554 9.018l15.715 32.321 34.445-7.603-4.267-8.468-20.357 4.643-12.143-24.643-13.393 3.75zm-44.464 12.321l15.714 32.5 36.608-11.071-4.286-7.5-22.143 6.429-3.571-6.608 21.25-5.892-3.75-6.786-20.536 6.25-2.5-5.179 23.214-6.607-3.928-6.607-36.072 11.071zm-51.25 18.036l15.179 34.107 13.571-6.071-6.607-14.107 15.357-5.179 6.429 13.393 13.393-4.286-14.822-33.035-13.214 4.642 5 10.893-15 5.715-5.714-11.429-13.572 5.357z" fill="url(#q)"/>
  <path d="m26.218 80.674c-1.6242 45.578 46.186 84.288 106.78 86.469 60.595 2.1809 111.03-32.984 112.66-78.562 0.055603-1.5606 0.058777-3.1129 0-4.6562-0.002991 0.094086 0.002991 0.18707 0 0.28125-1.6243 45.578-52.061 80.775-112.66 78.594-58.646-2.1107-105.31-38.47-106.78-82.125z" fill="url(#o)" filter="url(#j)"/>
  <path d="m2.0302 101.8c-0.58966 54.206 56.615 99.897 128.94 102.5 73.162 2.6332 134.07-39.844 136.03-94.875 0.042603-1.1954 0.044495-2.3753 0.031189-3.5625-0.007996 0.52283-0.012573 1.0382-0.031189 1.5625-1.9611 55.031-62.869 97.508-136.03 94.875-71.426-2.5707-128.11-47.179-128.94-100.5z" fill="#353631"/>
 </g>
 <g fill-rule="evenodd">
  <path d="m266.99 129.43c-1.9611 55.031-62.861 97.507-136.02 94.874-73.162-2.6332-130.88-49.379-128.92-104.41 0.044189-1.2391 0.11816-14.615 0.22156-15.841 4.4882-53.223 64.286-81.607 135.8-79.033 70.915 2.5523 127.32 30.478 128.93 83.292 0.051147 1.6736 0.047119 19.427-0.013062 21.118z" fill="url(#k)"/>
  <path d="m266.99 107.43c-1.9611 55.031-62.861 97.507-136.02 94.874-73.162-2.6332-130.88-49.379-128.92-104.41 1.9611-55.031 62.861-97.507 136.02-94.874 73.162 2.6332 130.88 49.379 128.92 104.41z" fill="url(#a)"/>
  <path d="m266.99 107.43c-1.9611 55.031-62.861 97.507-136.02 94.874-73.162-2.6332-130.88-49.379-128.92-104.41 1.9611-55.031 62.861-97.507 136.02-94.874 73.162 2.6332 130.88 49.379 128.92 104.41z" fill="url(#a)"/>
  <path d="m218.03 26.549c27.314 19.275 42.835 49.83 43.969 79.875 1.0919 28.936-20.222 52.558-46.385 69.712-22.69 14.878-47.665 25.386-81.646 24.163-30.299-1.0904-66.953-11.729-88.812-25.406 22.694 15.974 52.661 26.213 85.812 27.406 73.162 2.6332 134.07-39.844 136.03-94.875 1.1469-32.184-18.139-61.525-48.969-80.875z" fill="#fbfbfb" opacity=".587"/>
  <path d="m251.74 94.593c0 49.03-52.266 88.776-116.74 88.776-64.473 0-116.74-39.746-116.74-88.776 0-49.029 52.266-88.776 116.74-88.776 64.473 0 116.74 39.746 116.74 88.776z" fill="url(#l)"/>
  <path d="m245.64 99.615c-1.6616 45.578-52.474 82.957-114.46 80.776-61.99-2.1808-106.86-39.382-105.19-84.96 0.022095-0.60513 0.2308-12.816 0.26895-13.418 2.8367-44.735 49.775-68.827 110.94-66.675 60.214 2.1184 107.65 27.527 108.78 71.275 0.033325 1.2903-0.28595 11.696-0.33356 13.002z" fill="#330706"/>
  <path d="m245.64 97.615c-1.6616 45.578-52.474 82.957-114.46 80.776-61.99-2.1808-106.86-39.382-105.19-84.96 0.022095-0.60513 0.2308-12.816 0.26895-13.418 2.8367-44.735 49.775-68.827 110.94-66.675 60.214 2.1184 107.65 27.527 108.78 71.275 0.033325 1.2903-0.28595 11.696-0.33356 13.002z" fill="url(#m)"/>
  <path d="m239.67 99.571c-1.6243 45.578-52.063 80.758-112.66 78.578-60.595-2.1808-108.4-40.897-106.78-86.475 1.6243-45.578 52.063-80.758 112.66-78.578 60.595 2.1809 108.4 40.897 106.78 86.475z" fill="url(#n)"/>
  <path d="m26.218 80.674c-1.6242 45.578 46.186 84.288 106.78 86.469 60.595 2.1809 111.03-32.984 112.66-78.562 0.055603-1.5606 0.058777-3.1129 0-4.6562-0.002991 0.094086 0.002991 0.18707 0 0.28125-1.6243 45.578-52.061 80.775-112.66 78.594-58.646-2.1107-105.31-38.47-106.78-82.125z" fill="url(#o)" filter="url(#j)"/>
  <path d="m2.0302 101.8c-0.58966 54.206 56.615 99.897 128.94 102.5 73.162 2.6332 134.07-39.844 136.03-94.875 0.042603-1.1954 0.044495-2.3753 0.031189-3.5625-0.007996 0.52283-0.012573 1.0382-0.031189 1.5625-1.9611 55.031-62.869 97.508-136.03 94.875-71.426-2.5707-128.11-47.179-128.94-100.5z" fill="#353631"/>
 </g>
 <text transform="matrix(11.146 0 0 1 -509.55 0)" x="57.023682" y="98.576294" font-family="Arial" font-size="24" stroke-width="0" text-anchor="middle" xml:space="preserve"/>
</svg>
